<?xml version="1.0" encoding="UTF-8"?>
<svg id="Layer_2" data-name="Layer 2" xmlns="http://www.w3.org/2000/svg" xmlns:xlink="http://www.w3.org/1999/xlink" viewBox="0 0 1540.72072 676.08887">
  <defs>
    <style>
      .cls-1 {
        fill: url(#radial-gradient-6);
      }

      .cls-1, .cls-2, .cls-3, .cls-4, .cls-5, .cls-6, .cls-7, .cls-8, .cls-9 {
        stroke: #fff453;
        stroke-miterlimit: 10;
      }

      .cls-2 {
        fill: url(#radial-gradient-7);
      }

      .cls-3 {
        fill: url(#radial-gradient-4);
      }

      .cls-4 {
        fill: url(#radial-gradient-2);
      }

      .cls-5 {
        fill: url(#radial-gradient-9);
      }

      .cls-6 {
        fill: url(#radial-gradient-5);
      }

      .cls-7 {
        fill: url(#radial-gradient-3);
      }

      .cls-8 {
        fill: url(#radial-gradient-8);
      }

      .cls-9 {
        fill: url(#radial-gradient);
      }
    </style>
    <radialGradient id="radial-gradient" cx="145.00101" cy="312.40097" fx="145.00101" fy="312.40097" r="188.54893" gradientUnits="userSpaceOnUse">
      <stop offset="0" stop-color="#fff33b"/>
      <stop offset=".08975" stop-color="#fde534"/>
      <stop offset=".30386" stop-color="#fbcb29"/>
      <stop offset=".52279" stop-color="#fab820"/>
      <stop offset=".74757" stop-color="#f9ac1b"/>
      <stop offset=".98704" stop-color="#f9a91a"/>
    </radialGradient>
    <radialGradient id="radial-gradient-2" cx="410.38973" cy="310.01033" fx="410.38973" fy="310.01033" r="180.81468" xlink:href="#radial-gradient"/>
    <radialGradient id="radial-gradient-3" cx="706.79981" cy="312.16679" fx="706.79981" fy="312.16679" r="191.71179" xlink:href="#radial-gradient"/>
    <radialGradient id="radial-gradient-4" cx="976.79207" cy="346.45708" fx="976.79207" fy="346.45708" r="208.09885" xlink:href="#radial-gradient"/>
    <radialGradient id="radial-gradient-5" cx="1182.28035" cy="310.65601" fx="1182.28035" fy="310.65601" r="161.92843" xlink:href="#radial-gradient"/>
    <radialGradient id="radial-gradient-6" cx="1393.12349" cy="380.38833" fx="1393.12349" fy="380.38833" r="233.06393" xlink:href="#radial-gradient"/>
    <radialGradient id="radial-gradient-7" cx="393.65545" cy="202.71264" fx="393.65545" fy="202.71264" r="25.09773" xlink:href="#radial-gradient"/>
    <radialGradient id="radial-gradient-8" cx="700.80439" cy="416.15945" fx="700.80439" fy="416.15945" r="25.09773" xlink:href="#radial-gradient"/>
    <radialGradient id="radial-gradient-9" cx="1180.73079" cy="39.19277" fx="1180.73079" fy="39.19277" r="38.9725" xlink:href="#radial-gradient"/>
  </defs>
  <g id="Layer_1-2" data-name="Layer 1">
    <g>
      <path class="cls-9" d="M289.50203,88.30087l-114.59961,448.2002h-104.40039L1.87166,178.47034c-8.90879-46.47531,26.70932-89.56943,74.03076-89.56937,26.3999,127.20003,52.7998,254.40007,79.19971,381.6001,29.10207-72.56467,54.68438-172.18667,36.60008-247.79988-5.24204-26.65403-19.52507-44.61356-24.90113-68.39989-4.9811-22.69352-2.68012-45.20523,4.50125-66.00042h118.19971Z"/>
      <path class="cls-4" d="M290.09968,234.70126c-11.25197-130.5741,132.97755-150.52459,241.2002-150v450h-84.6001v-171.6001h-95.40039c13.70749,38.20813,26.95123,71.056,31.25894,113.29318,2.10729,58.96919-47.36798,60.72684-92.45864,58.30692V234.70126ZM446.69978,345.10117V112.90097c-138.81676-.16561-132.54434,134.42573-101.40039,232.2002h101.40039Z"/>
      <path class="cls-7" d="M804.29109,113.50107c2.40588,50.7348-42.31738,84.37271-88.80078,65.69949-8.39844-3.39334-15.40234-8.49344-20.99902-15.29959-16.31097-19.1377-38.72144-34.45761-60.59973-35.40042-18.04248-1.62247-24.78143,19.29276-16.20001,33.30124,17.17108,22.48495,43.2005,33.22699,70.79901,48.90057,74.07434,43.40973,167.36182,112.98193,170.40356,207.59723,1.70642,67.36292-48.4873,113.71948-111.60461,116.39984-52.34485,2.8363-108.98297,7.48792-147.89795-29.09778-46.05377-39.53809-63.52893-123.73358-18.60016-172.20105,20.53467-26.11517,97.50281-51.70831,114.30048-9.89954-53.34229,16.21075-89.14886,117.56781-50.40186,161.99908,13.828,19.61749,74.37494,28.02759,96.60144,9.00024,19.17139-13.17999,29.16455-39.16492,29.99866-58.79974.01038-65.89905-46.33215-113.70312-96.89838-147.89996-34.40967-23.90253-76.09332-42.26947-91.19952-81.60004-17.87408-42.65826-7.40674-104.14258,39.29901-116.09988,9.8866-2.02081,15.09479-3.05652,22.79987-1.79977,52.20007-.00015,104.40051-.00018,156.60059-.00012,1.27344,6.16318,2.39941,14.81729,2.39941,25.2002Z"/>
      <path class="cls-3" d="M1079.09187,186.10117c-22.36055-30.59077-46.79381-68.88284-84-81-13.99159,138.51883-4.66515,284.64855,40.46742,409.33167,16.3725,40.54043-13.95532,86.45582-56.96894,89.64074-49.35027,6.40076-91.66721-45.324-70.51511-91.87087,49.96844-125.75625,54.78508-272.14757,55.21683-404.70165-55.3293,26.64459-96.08944,94.00871-127.7998,146.3999v-127.49508c0-21.04482,17.0602-38.10502,38.10502-38.10502h206.38957c21.04482,0,38.10502,17.0602,38.10502,38.10502v127.49508c-12.40234-24.39355-25.40625-46.99658-39-67.7998Z"/>
      <path class="cls-6" d="M1223.08015,535.30087c-40.32289,3.94708-79.8991-8.26209-81.59944-55.0842-.00017.00209-.00017-394.31571-.00017-394.31571,38.13552-2.41983,79.16987.72525,81.59945,48.51504.00016-.00214.00016,400.88486.00016,400.88486Z"/>
      <path class="cls-1" d="M1387.46394,336.10117c17.95062,2.83104,37.94472,2.97495,55.79976,10.19994,42.05541,12.52622,65.38979,73.47255,67.79825,105.60123,2.57508,100.03261-40.65564,116.93826,28.72107,223.66148-74.22364-1.96979-142.13045-89.01586-127.11603-155.26614,11.76144-76.13493-6.95754-152.45874-84.60345-180.59641-7.85223,71.29122,35.63853,205.2064-81.59961,195.59961V138.79623c1.83083-47.05219,42.05031-56.48616,81.59961-52.89526v137.3999c29.80386-60.38219,79.37435-117.48584,148.54736-132.17794,20.55223-4.36845,39.6644,11.95837,38.62927,32.94464l-4.77624,96.8334c-36.57674-43.92758-102.6475-34.46496-136.19947,8.40158-29.74096,34.06399-55.81521,99.7149,13.19947,106.79861Z"/>
      <path class="cls-2" d="M418.93203,202.71277c-.56744,33.22606-49.99056,33.22085-50.55315-.00107.5674-33.22499,49.99052-33.21978,50.55315.00107Z"/>
      <path class="cls-8" d="M726.08096,416.15958c-.56744,33.22606-49.99056,33.22085-50.55315-.00107.5674-33.22499,49.99052-33.21978,50.55315.00107Z"/>
      <path class="cls-5" d="M1219.98103,39.19299c-.88123,51.59439-77.62683,51.5863-78.50049-.00168.8811-51.59274,77.62671-51.58466,78.50049.00168Z"/>
    </g>
  </g>
</svg>