<?xml version="1.0" encoding="utf-8"?>
<!-- Generator: Adobe Illustrator 28.2.0, SVG Export Plug-In . SVG Version: 6.00 Build 0)  -->
<svg version="1.1" id="Layer_1" xmlns="http://www.w3.org/2000/svg" xmlns:xlink="http://www.w3.org/1999/xlink" x="0px" y="0px"
	 viewBox="0 0 2048 2048" style="enable-background:new 0 0 2048 2048;" xml:space="preserve">
<style type="text/css">
	.st0{fill:url(#SVGID_1_);stroke:#FFF453;stroke-miterlimit:10;}
	.st1{fill:url(#SVGID_00000096753138832692617530000013541342599249683332_);stroke:#FFF453;stroke-miterlimit:10;}
	.st2{fill:url(#SVGID_00000078012748911967873350000002536437382307798448_);stroke:#FFF453;stroke-miterlimit:10;}
	.st3{fill:url(#SVGID_00000088097316844687032030000017778879148087198127_);stroke:#FFF453;stroke-miterlimit:10;}
	.st4{fill:url(#SVGID_00000106149537748834860960000001144907043039905705_);stroke:#FFF453;stroke-miterlimit:10;}
	.st5{fill:url(#SVGID_00000059272330461173638250000005758081246535386771_);stroke:#FFF453;stroke-miterlimit:10;}
	.st6{fill:url(#SVGID_00000081648810502838620530000011774173397736951707_);stroke:#FFF453;stroke-miterlimit:10;}
	.st7{fill:url(#SVGID_00000163066406927638124620000016924852166304392073_);stroke:#FFF453;stroke-miterlimit:10;}
	.st8{fill:url(#SVGID_00000016787516886378123530000013824728749536323743_);stroke:#FFF453;stroke-miterlimit:10;}
</style>
<g>
	<radialGradient id="SVGID_1_" cx="429.5371" cy="623.7095" r="188.5489" gradientUnits="userSpaceOnUse">
		<stop  offset="0" style="stop-color:#FFF33B"/>
		<stop  offset="1.055395e-02" style="stop-color:#FFF03A"/>
		<stop  offset="0.1962" style="stop-color:#FFD62C"/>
		<stop  offset="0.3858" style="stop-color:#FDC222"/>
		<stop  offset="0.5785" style="stop-color:#FBB41D"/>
		<stop  offset="0.7763" style="stop-color:#F9AC1B"/>
		<stop  offset="0.987" style="stop-color:#F9A91A"/>
	</radialGradient>
	<path class="st0" d="M574,399.6L459.4,847.8H355l-68.6-358c-8.9-46.5,26.7-89.6,74-89.6c26.4,127.2,52.8,254.4,79.2,381.6
		c29.1-72.6,54.7-172.2,36.6-247.8c-5.2-26.7-19.5-44.6-24.9-68.4c-5-22.7-2.7-45.2,4.5-66H574z"/>
	
		<radialGradient id="SVGID_00000103982275661740878340000011230375845779526045_" cx="694.9258" cy="621.3188" r="180.8147" gradientUnits="userSpaceOnUse">
		<stop  offset="0" style="stop-color:#FFF33B"/>
		<stop  offset="1.055395e-02" style="stop-color:#FFF03A"/>
		<stop  offset="0.1962" style="stop-color:#FFD62C"/>
		<stop  offset="0.3858" style="stop-color:#FDC222"/>
		<stop  offset="0.5785" style="stop-color:#FBB41D"/>
		<stop  offset="0.7763" style="stop-color:#F9AC1B"/>
		<stop  offset="0.987" style="stop-color:#F9A91A"/>
	</radialGradient>
	<path style="fill:url(#SVGID_00000103982275661740878340000011230375845779526045_);stroke:#FFF453;stroke-miterlimit:10;" d="
		M574.6,546c-11.3-130.6,133-150.5,241.2-150v450h-84.6V674.4h-95.4c13.7,38.2,27,71.1,31.3,113.3c2.1,59-47.4,60.7-92.5,58.3V546z
		 M731.2,656.4V424.2C592.4,424,598.7,558.6,629.8,656.4H731.2z"/>
	
		<radialGradient id="SVGID_00000078729453239493127580000017590603918897286552_" cx="991.3359" cy="623.4753" r="191.7118" gradientUnits="userSpaceOnUse">
		<stop  offset="0" style="stop-color:#FFF33B"/>
		<stop  offset="1.055395e-02" style="stop-color:#FFF03A"/>
		<stop  offset="0.1962" style="stop-color:#FFD62C"/>
		<stop  offset="0.3858" style="stop-color:#FDC222"/>
		<stop  offset="0.5785" style="stop-color:#FBB41D"/>
		<stop  offset="0.7763" style="stop-color:#F9AC1B"/>
		<stop  offset="0.987" style="stop-color:#F9A91A"/>
	</radialGradient>
	<path style="fill:url(#SVGID_00000078729453239493127580000017590603918897286552_);stroke:#FFF453;stroke-miterlimit:10;" d="
		M1088.8,424.8c2.4,50.7-42.3,84.4-88.8,65.7c-8.4-3.4-15.4-8.5-21-15.3c-16.3-19.1-38.7-34.5-60.6-35.4
		c-18-1.6-24.8,19.3-16.2,33.3c17.2,22.5,43.2,33.2,70.8,48.9c74.1,43.4,167.4,113,170.4,207.6c1.7,67.4-48.5,113.7-111.6,116.4
		c-52.3,2.8-109,7.5-147.9-29.1c-46.1-39.5-63.5-123.7-18.6-172.2c20.5-26.1,97.5-51.7,114.3-9.9c-53.3,16.2-89.1,117.6-50.4,162
		c13.8,19.6,74.4,28,96.6,9c19.2-13.2,29.2-39.2,30-58.8c0-65.9-46.3-113.7-96.9-147.9c-34.4-23.9-76.1-42.3-91.2-81.6
		c-17.9-42.7-7.4-104.1,39.3-116.1c9.9-2,15.1-3.1,22.8-1.8c52.2,0,104.4,0,156.6,0C1087.7,405.8,1088.8,414.4,1088.8,424.8z"/>
	
		<radialGradient id="SVGID_00000025436382710348096530000013552751503161481119_" cx="1261.3281" cy="657.7656" r="208.0988" gradientUnits="userSpaceOnUse">
		<stop  offset="0" style="stop-color:#FFF33B"/>
		<stop  offset="1.055395e-02" style="stop-color:#FFF03A"/>
		<stop  offset="0.1962" style="stop-color:#FFD62C"/>
		<stop  offset="0.3858" style="stop-color:#FDC222"/>
		<stop  offset="0.5785" style="stop-color:#FBB41D"/>
		<stop  offset="0.7763" style="stop-color:#F9AC1B"/>
		<stop  offset="0.987" style="stop-color:#F9A91A"/>
	</radialGradient>
	<path style="fill:url(#SVGID_00000025436382710348096530000013552751503161481119_);stroke:#FFF453;stroke-miterlimit:10;" d="
		M1363.6,497.4c-22.4-30.6-46.8-68.9-84-81c-14,138.5-4.7,284.6,40.5,409.3c16.4,40.5-14,86.5-57,89.6
		c-49.4,6.4-91.7-45.3-70.5-91.9c50-125.8,54.8-272.1,55.2-404.7c-55.3,26.6-96.1,94-127.8,146.4V437.7c0-21,17.1-38.1,38.1-38.1
		h206.4c21,0,38.1,17.1,38.1,38.1v127.5C1390.2,540.8,1377.2,518.2,1363.6,497.4z"/>
	
		<radialGradient id="SVGID_00000059278030941816670650000008964335953021562526_" cx="1466.8164" cy="621.9645" r="161.9284" gradientUnits="userSpaceOnUse">
		<stop  offset="0" style="stop-color:#FFF33B"/>
		<stop  offset="1.055395e-02" style="stop-color:#FFF03A"/>
		<stop  offset="0.1962" style="stop-color:#FFD62C"/>
		<stop  offset="0.3858" style="stop-color:#FDC222"/>
		<stop  offset="0.5785" style="stop-color:#FBB41D"/>
		<stop  offset="0.7763" style="stop-color:#F9AC1B"/>
		<stop  offset="0.987" style="stop-color:#F9A91A"/>
	</radialGradient>
	<path style="fill:url(#SVGID_00000059278030941816670650000008964335953021562526_);stroke:#FFF453;stroke-miterlimit:10;" d="
		M1507.6,846.6c-40.3,3.9-79.9-8.3-81.6-55.1c0,0,0-394.3,0-394.3c38.1-2.4,79.2,0.7,81.6,48.5
		C1507.6,445.7,1507.6,846.6,1507.6,846.6z"/>
	
		<radialGradient id="SVGID_00000168836532274108910910000017175743667700195736_" cx="1677.6595" cy="691.6968" r="233.0639" gradientUnits="userSpaceOnUse">
		<stop  offset="0" style="stop-color:#FFF33B"/>
		<stop  offset="1.055395e-02" style="stop-color:#FFF03A"/>
		<stop  offset="0.1962" style="stop-color:#FFD62C"/>
		<stop  offset="0.3858" style="stop-color:#FDC222"/>
		<stop  offset="0.5785" style="stop-color:#FBB41D"/>
		<stop  offset="0.7763" style="stop-color:#F9AC1B"/>
		<stop  offset="0.987" style="stop-color:#F9A91A"/>
	</radialGradient>
	<path style="fill:url(#SVGID_00000168836532274108910910000017175743667700195736_);stroke:#FFF453;stroke-miterlimit:10;" d="
		M1672,647.4c18,2.8,37.9,3,55.8,10.2c42.1,12.5,65.4,73.5,67.8,105.6c2.6,100-40.7,116.9,28.7,223.7c-74.2-2-142.1-89-127.1-155.3
		c11.8-76.1-7-152.5-84.6-180.6c-7.9,71.3,35.6,205.2-81.6,195.6V450.1c1.8-47.1,42.1-56.5,81.6-52.9v137.4
		c29.8-60.4,79.4-117.5,148.5-132.2c20.6-4.4,39.7,12,38.6,32.9l-4.8,96.8c-36.6-43.9-102.6-34.5-136.2,8.4
		C1629.1,574.7,1603,640.3,1672,647.4z"/>
	
		<radialGradient id="SVGID_00000137111950517265522310000001627537575591108537_" cx="678.1915" cy="514.0211" r="25.0977" gradientUnits="userSpaceOnUse">
		<stop  offset="0" style="stop-color:#FFF33B"/>
		<stop  offset="1.055395e-02" style="stop-color:#FFF03A"/>
		<stop  offset="0.1962" style="stop-color:#FFD62C"/>
		<stop  offset="0.3858" style="stop-color:#FDC222"/>
		<stop  offset="0.5785" style="stop-color:#FBB41D"/>
		<stop  offset="0.7763" style="stop-color:#F9AC1B"/>
		<stop  offset="0.987" style="stop-color:#F9A91A"/>
	</radialGradient>
	<path style="fill:url(#SVGID_00000137111950517265522310000001627537575591108537_);stroke:#FFF453;stroke-miterlimit:10;" d="
		M703.5,514c-0.6,33.2-50,33.2-50.6,0C653.5,480.8,702.9,480.8,703.5,514z"/>
	
		<radialGradient id="SVGID_00000122709861018017390820000001463787526679200924_" cx="985.3405" cy="727.468" r="25.0977" gradientUnits="userSpaceOnUse">
		<stop  offset="0" style="stop-color:#FFF33B"/>
		<stop  offset="1.055395e-02" style="stop-color:#FFF03A"/>
		<stop  offset="0.1962" style="stop-color:#FFD62C"/>
		<stop  offset="0.3858" style="stop-color:#FDC222"/>
		<stop  offset="0.5785" style="stop-color:#FBB41D"/>
		<stop  offset="0.7763" style="stop-color:#F9AC1B"/>
		<stop  offset="0.987" style="stop-color:#F9A91A"/>
	</radialGradient>
	<path style="fill:url(#SVGID_00000122709861018017390820000001463787526679200924_);stroke:#FFF453;stroke-miterlimit:10;" d="
		M1010.6,727.5c-0.6,33.2-50,33.2-50.6,0C960.6,694.2,1010.1,694.2,1010.6,727.5z"/>
	
		<radialGradient id="SVGID_00000064330265379536623640000008040453154486739335_" cx="1465.2668" cy="350.5013" r="38.9725" gradientUnits="userSpaceOnUse">
		<stop  offset="0" style="stop-color:#FFF33B"/>
		<stop  offset="1.055395e-02" style="stop-color:#FFF03A"/>
		<stop  offset="0.1962" style="stop-color:#FFD62C"/>
		<stop  offset="0.3858" style="stop-color:#FDC222"/>
		<stop  offset="0.5785" style="stop-color:#FBB41D"/>
		<stop  offset="0.7763" style="stop-color:#F9AC1B"/>
		<stop  offset="0.987" style="stop-color:#F9A91A"/>
	</radialGradient>
	<path style="fill:url(#SVGID_00000064330265379536623640000008040453154486739335_);stroke:#FFF453;stroke-miterlimit:10;" d="
		M1504.5,350.5c-0.9,51.6-77.6,51.6-78.5,0C1426.9,298.9,1503.6,298.9,1504.5,350.5z"/>
</g>
</svg>
