<?xml version="1.0" encoding="utf-8"?>
<!-- Generator: Adobe Illustrator 28.2.0, SVG Export Plug-In . SVG Version: 6.00 Build 0)  -->
<svg version="1.1" id="Layer_1" xmlns="http://www.w3.org/2000/svg" xmlns:xlink="http://www.w3.org/1999/xlink" x="0px" y="0px"
	 viewBox="0 0 2048 2048" style="enable-background:new 0 0 2048 2048;" xml:space="preserve">
<style type="text/css">
	.st0{fill:url(#path1_00000131350146078662762170000013772726937652692113_);}
</style>
<radialGradient id="path1_00000067943789676327042850000001247402839957435832_" cx="1076.2098" cy="1023.3148" r="586.0049" gradientUnits="userSpaceOnUse">
	<stop  offset="0" style="stop-color:#FFF33B"/>
	<stop  offset="3.771823e-02" style="stop-color:#FFE029"/>
	<stop  offset="8.260060e-02" style="stop-color:#FFD217"/>
	<stop  offset="0.1288" style="stop-color:#FEC90E"/>
	<stop  offset="0.1781" style="stop-color:#FDC70C"/>
	<stop  offset="0.4317" style="stop-color:#F6A441"/>
	<stop  offset="0.5994" style="stop-color:#FDD543"/>
	<stop  offset="0.8027" style="stop-color:#F8BD45"/>
	<stop  offset="1" style="stop-color:#F09143"/>
</radialGradient>
<path id="path1" style="fill:url(#path1_00000067943789676327042850000001247402839957435832_);" d="M1068.3,1522.2
	c-7.1-9.6-10.5-14.3-18.3-26c-18.2-27.1-41.6-69.9-50.5-92.1c-14.1-35.5-19.3-61.2-19.3-96.1c0-22.7,0.6-27.9,5-41
	c8.8-26.7,23.9-42.1,51.3-52.2c13.2-4.9,16.9-5.4,39.7-5.4c26.4,0,33,1.3,50.8,10c14.4,7,26,17.9,32.9,31
	c10,18.8,12.2,29.4,12.1,58.6c0,46.9-12.9,89.7-43.2,143.5c-11.2,19.9-39.5,63.4-48.4,74.3l-4.5,5.5L1068.3,1522.2z M707,1435.2
	c0-6.1,12.9-39.5,23.3-60.3c21.2-42.5,49-75.7,72.6-86.6c9.8-4.6,27.3-7.6,53.3-9.2c39.6-2.4,64.3-10.6,84.2-27.9
	c5-4.3,10.6-7.8,12.4-7.8c9.1,0,19.2,19.4,16.6,31.6c-2.4,11.1-17.7,41.4-29.8,59.1c-29.1,42.5-65.6,70-114.5,86.3
	c-25.8,8.6-42.9,12.1-77.8,15.8C709.7,1440.2,707,1440.1,707,1435.2L707,1435.2z M1402.8,1436.2c-92.7-9.5-152.9-43.4-196.1-110.6
	c-2.8-4.3-9.3-16.6-14.4-27.1c-11.4-23.6-12.4-35.2-3.9-46.3c8.6-11.3,11-11.6,20.5-3c21.6,19.5,45.7,27.1,98.9,30.9
	c26.3,1.9,39.3,5.4,51.4,13.7c24.7,17,53.3,56.3,70.6,96.9c7.4,17.3,15.6,41,15.6,44.9C1445.4,1439.9,1439.7,1440,1402.8,1436.2
	L1402.8,1436.2z M605.3,1315c-46.3-6.4-101.1-20.2-159.9-40.1c-14.7-5-22.5-8.6-22.9-10.6c-0.6-3.3,12.8-14.8,29.7-25.5
	c37-23.4,96.1-41.8,172.5-53.5c13.1-2,13.7-1.9,17.1,2.4c1.9,2.5,9.3,10.5,16.4,17.8c34.6,35.6,72.4,53.6,112.7,53.6
	c7.5,0,13.6,0.7,13.6,1.5c0,3.3-12.3,16.2-23.7,24.7c-21.2,16-41.3,24.2-71.2,29.2C671.7,1317.3,624.5,1317.7,605.3,1315L605.3,1315
	z M1460.9,1314.3c-27-4.9-49.9-14.5-69.1-29c-11.8-8.9-23.9-21.2-23.9-24.2c0-0.9,8.9-2.1,19.9-2.8c29.7-1.8,49.6-8.5,74.8-25.3
	c11.4-7.6,42.3-36.6,49.3-46.5c2.4-3.4,3.7-3.5,16-1.4c88.7,14.8,141.3,32.2,182,60.4c16.5,11.4,21.2,16.1,19.8,19.9
	c-0.6,1.5-12.7,6.4-26.9,10.8c-14.2,4.5-27.6,8.9-29.7,9.8c-5.6,2.4-56.9,16.2-72.7,19.6c-35,7.5-55.6,9.9-89.2,10.6
	C1486.4,1316.7,1471,1316.1,1460.9,1314.3z M824.3,1246.3c-87-9.4-164.2-56.7-232.1-142.4c-13-16.4-44.4-63.7-52.4-78.7l-5.2-9.9
	l5.3-2c5.8-2.2,14.3-4.8,26.9-8c11.6-3,49.9-2.5,65.7,0.8c16.6,3.5,21.4,4.9,38.7,11.5c26.1,9.9,33.2,14.5,38.9,25
	c7.2,13.2,33.6,52.7,42.4,63.3c12.2,14.8,44,46.3,58.9,58.4c29.4,23.7,69.8,46.8,103,58.8c18.9,6.8,23.7,9.2,21.8,10.9
	c-3.3,3.1-36.9,9.9-61.1,12.5c-14.1,1.5-26.1,2.6-26.6,2.5C847.9,1248.9,837,1247.6,824.3,1246.3L824.3,1246.3z M1270,1246.2
	c-18-2.5-51.7-10.3-54.1-12.6c-1.9-1.8-1.4-2,26-12.3c48.6-18.2,92-46.9,131.1-86.7c26.1-26.5,49.3-56.9,65-85.2
	c8.9-16,10-17.2,21.8-22.8c33.7-16,56.9-21.9,90.2-23.1c27.5-1,38.6,0.7,61.9,9.4c6.9,2.6,7,2-9.1,29
	c-13.3,22.2-42.7,63.3-56.9,79.7c-15.6,18-46.5,47.5-63.4,60.7c-33.2,25.8-78.8,48.8-111.6,56.2c-8.5,1.9-18.1,4.3-21.3,5.3
	C1343.4,1245.7,1280.2,1247.6,1270,1246.2L1270,1246.2z M949.3,1207.1c-33.6-2.3-77.1-24.6-103.4-53
	c-27.7-29.9-44.8-64.2-52.6-105.5c-2.7-14.2-4.3-66.9-2-66.9c0.5,0,7.7,7.1,16,15.7c23.9,24.9,51.2,42,83.4,51.9
	c8,2.5,14.1,5.4,14.1,6.9c0,6,12.7,40.3,20.6,55.7c18.5,36,55.8,65.1,90.6,71.1c10.1,1.7,10.6,4.7,1.9,9.8
	C1000.7,1203,972.9,1208.8,949.3,1207.1L949.3,1207.1z M1177,1206.4c-17.8-1.6-49.4-13.9-49.4-19.3c0-0.9,5-3,11.1-4.7
	c30.2-8.5,47.9-19,66.9-39.9c18-19.7,34.9-53.7,41-82.6c1.2-5.6,2.5-6.5,14.3-10.3c34.1-10.8,58.8-26,83.4-51.2
	c8.9-9.1,16.6-16.6,17-16.6c2.1,0,0.4,53.3-2.2,66.9c-10.6,56.2-41.3,104-84.9,132.3C1242.2,1201.7,1212.3,1209.6,1177,1206.4
	L1177,1206.4z M1051,1156.2c-2.1-0.9-6-1.7-8.6-1.8c-2.6-0.1-13.1-4.2-23.3-9.1c-31.1-15.1-53.2-41.2-62.3-73.4
	c-3.5-12.4-3.6-51.3-0.1-70.7c13.3-74.9,38.2-134.5,82.1-195.9c13.5-18.8,37.3-46.2,38.7-44.4c0.4,0.5,6,7.1,12.4,14.5
	c49.1,57.4,84.6,127.1,99.3,194.9c7.9,36.4,8.9,43.8,9,65.8c0.1,18.4-0.8,24.8-4.6,36.5c-12.5,38.4-49.5,72.2-90.5,82.6
	C1090.3,1158.4,1057.6,1159,1051,1156.2L1051,1156.2z M741.2,1026C692,974.6,653.3,908.7,636,846.7c-5.7-20.5-13.8-63.2-16.2-85.8
	c-2.5-23.8-2.1-97.4,0.5-100.1c2.7-2.7,48.6,22.9,81.8,45.6c39.7,27.1,83.2,63.4,115.8,96.5l15,15.2l-2.8,21.3
	c-4.5,34.2-3.2,71.9,4,110.3c1.6,8.4,2.4,15.8,1.8,16.3c-0.6,0.6-5.1-1.9-10.2-5.5c-43.3-30.5-56.3-38.7-58.1-36.4
	c-4.4,5.5-8.6,52.9-7.9,89.1c0.4,16.8,0.2,30.5-0.3,30.5C758.8,1043.8,750.6,1035.8,741.2,1026L741.2,1026z M1392.7,1012.1
	c0.5-26-0.8-48-4.8-78.2c-0.6-4.5-2.1-9-3.4-10.1c-1.6-1.4-11.6,4.5-34.2,20.3c-17.5,12.2-32.5,22.2-33.3,22.2
	c-0.8,0-1.1-2.4-0.6-5.3c0.5-2.9,2.4-14.1,4.2-24.7c4.2-24.6,4.7-82.9,0.9-103.4l-2.6-14.3l15.2-15.4
	c29.4-29.8,70.6-64.8,104.2-88.6c36.7-25.9,90.5-56.8,93.6-53.7c2.7,2.7,3.1,76.3,0.5,100.1c-2.4,22.6-10.5,65.4-16.2,85.8
	c-14.3,51.2-48.1,113.6-84.6,156.4c-18.1,21.3-35.2,38.8-37.7,38.8C1392.8,1041.9,1392.3,1031.7,1392.7,1012.1L1392.7,1012.1z
	 M899.5,1016.2c-16.5-18.3-32.5-52.4-40.8-87.1c-4.3-17.7-4.8-79-0.9-98.5c9-45.1,20.5-85.2,24.8-86.7c3.4-1.1,35.5,21.3,51.1,35.7
	c15.4,14.3,36.3,37.8,40.5,45.8c2.5,4.6,1.9,6.7-7.6,27.9c-5.6,12.6-11.3,25.5-12.6,28.7c-1.3,3.2-3.4,8.3-4.6,11.3
	c-7.8,19.2-19.1,51.7-29.4,84.7c-4.5,14.4-9.3,29.6-10.6,33.8C906.5,1021.1,904.7,1021.9,899.5,1016.2L899.5,1016.2z M1244.9,1018.3
	c-0.5-1.4-2.7-8.7-5-16.2c-9-29.6-21.8-68.8-28.2-86.2c-8-21.9-6.7-18.7-23.1-55.8c-12.2-27.6-12.9-30-10.4-34.6
	c4.1-7.6,24.8-31.2,39.8-45.2c14.8-13.9,48.4-37.4,51.8-36.3c2.7,0.9,6.9,12.6,13.6,38.2c12.4,47.2,13.8,57.3,13.7,97.9
	c-0.1,33.5-0.6,38.7-5.4,57.2C1282,974.7,1249.4,1031.3,1244.9,1018.3L1244.9,1018.3z M982.5,778.9c-5.4-6.2-17.3-17.8-26.4-25.8
	c-19-16.6-18.7-15.2-8.4-39.6c16.5-39.3,34.5-72.8,58.8-109.8c21.1-32.1,60.3-83.9,67.8-89.6c2.5-1.9,11.8,8.6,35.7,40.2
	c41.2,54.5,76.3,114.3,94.7,161.7l7.9,20.2l-27.4,26.8c-15.1,14.7-27.8,26.7-28.4,26.7c-0.6,0-8-11.1-16.6-24.6
	c-18.5-29.3-46-66.4-56.9-76.9l-7.9-7.6l-8.3,8.6c-11.5,12-27.7,34-51.4,69.4c-11.1,16.6-20.9,30.5-21.7,30.8
	C993,789.8,987.9,785,982.5,778.9L982.5,778.9z"/>
</svg>
